PathFileType	4	(X/Y/Z)	C:\Users\Biomechanik\SynologyDrive\AlexP\Athlete_03\Athlete_3_25_03_31\Static_01\marker_experimental.trc
DataRate	CameraRate	NumFrames	NumMarkers	Units	OrigDataRate	OrigDataStartFrame	OrigNumFrames
200.000000	200.000000	4	74	mm	200.000000	46	372
Frame#	Time	BL			BR			GLAB			RFHD			LFHD			C7			T6			SPINMOL			SPINM2			SPINM3			T12			BELTOL			BELT2			BELT3			SACROL			SACR2			SACR3			LASI			RASI			LPSI			RPSI			LTHOL			LTH2			LTH3			LKNEL			LKNEM			LFIB			LSHAOL			LSHA2			LSHA3			LMALL			LMALM			LHEE			LTOE			LM5			RTHOL			RTH2			RTH3			RKNEL			RKNEM			RFIB			RSHAOL			RSHA2			RSHA3			RMALL			RMALM			RHEE			RTOE			RM5			STRN			XIPH			LACR			LUAOL			LUA2			LUA3			LCUBL			LCUBM			LLAOL			LLA2			LLA3			LWRR			LWRU			RACR			RUAOL			RUA2			RUA3			RCUBL			RCUBM			RLAOL			RLA2			RLA3			RWRR			RWRU			*73			
		X1	Y1	Z1	X2	Y2	Z2	X3	Y3	Z3	X4	Y4	Z4	X5	Y5	Z5	X6	Y6	Z6	X7	Y7	Z7	X8	Y8	Z8	X9	Y9	Z9	X10	Y10	Z10	X11	Y11	Z11	X12	Y12	Z12	X13	Y13	Z13	X14	Y14	Z14	X15	Y15	Z15	X16	Y16	Z16	X17	Y17	Z17	X18	Y18	Z18	X19	Y19	Z19	X20	Y20	Z20	X21	Y21	Z21	X22	Y22	Z22	X23	Y23	Z23	X24	Y24	Z24	X25	Y25	Z25	X26	Y26	Z26	X27	Y27	Z27	X28	Y28	Z28	X29	Y29	Z29	X30	Y30	Z30	X31	Y31	Z31	X32	Y32	Z32	X33	Y33	Z33	X34	Y34	Z34	X35	Y35	Z35	X36	Y36	Z36	X37	Y37	Z37	X38	Y38	Z38	X39	Y39	Z39	X40	Y40	Z40	X41	Y41	Z41	X42	Y42	Z42	X43	Y43	Z43	X44	Y44	Z44	X45	Y45	Z45	X46	Y46	Z46	X47	Y47	Z47	X48	Y48	Z48	X49	Y49	Z49	X50	Y50	Z50	X51	Y51	Z51	X52	Y52	Z52	X53	Y53	Z53	X54	Y54	Z54	X55	Y55	Z55	X56	Y56	Z56	X57	Y57	Z57	X58	Y58	Z58	X59	Y59	Z59	X60	Y60	Z60	X61	Y61	Z61	X62	Y62	Z62	X63	Y63	Z63	X64	Y64	Z64	X65	Y65	Z65	X66	Y66	Z66	X67	Y67	Z67	X68	Y68	Z68	X69	Y69	Z69	X70	Y70	Z70	X71	Y71	Z71	X72	Y72	Z72	X73	Y73	Z73	X74	Y74	Z74	

47	0.23	960.7617797851562	36.20130538940442	-1933.523559570312	1063.16162109375	32.94337844848632	86.66005706787109	356.9355773925781	1604.484741210938	-1191.623901367188	306.3082885742188	1630.870727539062	-1129.186157226562	316.2718200683594	1630.55126953125	-1264.995483398438	133.1181182861328	1438.567504882812	-1209.288696289062	nan	nan	nan	91.68753814697266	1229.385864257812	-1240.887817382812	85.8770751953125	1220.298461914062	-1191.443115234375	99.10396575927734	1164.976440429688	-1225.95947265625	115.7012939453125	1101.547119140625	-1222.738647460938	87.98632049560547	1080.400634765625	-1237.303588867188	87.34862518310547	1077.081420898438	-1187.092895507812	81.11620330810547	1017.489929199219	-1217.015747070312	97.37922668457031	957.9450683593751	-1241.394775390625	97.90362548828125	955.9719848632814	-1189.961547851562	79.633056640625	898.5015258789064	-1217.40966796875	328.4921264648438	935.9778442382814	-1332.560180664062	319.4031982421875	927.2614135742189	-1085.29296875	109.7231140136719	975.3485107421876	-1260.322875976562	110.2677307128906	966.5717163085939	-1175.7001953125	190.1478271484375	682.7914428710939	-1401.91552734375	140.8701477050781	629.2410888671876	-1369.510009765625	187.1866760253906	623.0230102539064	-1388.234130859375	236.4163665771484	487.4778747558594	-1384.4013671875	254.9867248535156	462.7122802734376	-1264.329223632812	193.9322357177734	425.3363037109376	-1389.346069335938	159.9200897216797	328.2730102539064	-1404.563232421875	110.7150650024414	266.7925415039063	-1391.302978515625	159.6238861083984	266.3953857421876	-1402.61279296875	142.6840972900391	81.21120452880868	-1381.6435546875	183.4865417480469	89.66700744628915	-1295.8154296875	94.89896392822266	67.23724365234384	-1318.392333984375	309.845947265625	47.76161193847665	-1348.641235351562	253.0664367675781	31.17878913879403	-1443.593383789062	156.5979309082031	696.2809448242189	-1026.271240234375	207.4600830078125	638.1020507812501	-1006.167175292969	164.3233032226562	635.0628662109376	-1031.162231445312	199.2708740234375	496.5143432617188	-1027.072631835938	237.6494293212891	464.3013305664063	-1148.420532226562	152.7252807617188	432.5674743652344	-1029.756958007812	118.6696014404297	346.8345336914063	-1019.729553222656	148.3498077392578	275.5256958007813	-1004.271850585938	107.0825576782227	286.1948547363282	-1029.983154296875	124.8120269775391	85.00741577148443	-1041.771728515625	188.8461456298828	95.58016967773445	-1114.696533203125	90.59218597412109	63.28879547119148	-1115.036376953125	292.6568298339844	47.65655899047858	-1043.788696289062	216.4554748535156	39.49123382568365	-964.2833251953125	315.8339233398438	1366.632568359375	-1204.086669921875	347.5275573730469	1221.02001953125	-1205.4130859375	194.1633758544922	1435.033935546875	-1355.326049804688	161.464599609375	1409.657348632812	-1494.240966796875	150.4728546142578	1383.9306640625	-1554.444458007812	194.0768432617188	1412.25390625	-1551.47705078125	175.7458648681641	1399.723388671875	-1658.814086914062	249.0647735595703	1309.630126953125	-1656.549194335938	174.5143280029297	1374.003784179688	-1749.286865234375	167.7754821777344	1314.518798828125	-1802.042724609375	179.7120819091797	1362.951293945312	-1810.242309570312	193.3429870605469	1353.667114257813	-1914.417602539062	272.3417053222656	1350.595947265625	-1906.640747070312	193.8253021240234	1430.270141601562	-1064.43017578125	150.8514862060547	1412.568115234375	-941.8649291992186	168.5679779052734	1409.93603515625	-878.1926879882811	121.894775390625	1389.923095703125	-888.0100097656249	144.5606231689453	1392.500122070312	-773.4071044921874	200.7249450683594	1296.998291015625	-773.8303833007811	133.2540283203125	1372.693603515625	-674.4255981445311	149.7543640136719	1414.763305664062	-608.7117309570311	132.7191772460938	1367.203735351562	-612.1315307617186	145.0878753662109	1378.667724609375	-519.9845581054686	222.9013671875	1354.048583984375	-507.7312622070312	93.64353942871094	1266.2705078125	-1218.85205078125	
48	0.235	960.760498046875	36.20728683471692	-1933.531127929688	1063.153198242188	32.92810440063476	86.64419555664062	357.001953125	1604.462646484375	-1191.56201171875	306.412353515625	1630.833129882812	-1129.08544921875	316.4039306640625	1630.552856445312	-1264.958251953125	133.1421356201172	1438.5693359375	-1209.26611328125	nan	nan	nan	91.75056457519531	1229.383422851562	-1240.858520507812	85.91745758056641	1220.304565429688	-1191.413452148438	99.14962768554688	1164.97705078125	-1225.950317382812	115.7370376586914	1101.554931640625	-1222.711181640625	88.00918579101562	1080.402709960938	-1237.284545898438	87.385498046875	1077.085815429688	-1187.064208984375	81.13018798828125	1017.514892578125	-1217.007080078125	97.41509246826172	957.9503173828126	-1241.352294921875	97.96424102783203	955.9733886718751	-1189.912963867188	79.6956787109375	898.5139160156251	-1217.37646484375	328.5220947265625	935.9704589843751	-1332.544799804688	319.778564453125	927.4896850585939	-1084.9072265625	109.7503051757812	975.3559570312501	-1260.30712890625	110.3175811767578	966.5728149414064	-1175.671020507812	190.1493377685547	682.8002929687501	-1401.919555664062	140.8671264648438	629.2366943359376	-1369.517456054688	187.1730804443359	623.0391235351564	-1388.237426757812	236.4272918701172	487.4783630371094	-1384.396850585938	254.9187774658203	462.6835021972657	-1264.3662109375	193.9294281005859	425.3383789062501	-1389.3203125	159.9321899414062	328.2672729492189	-1404.552978515625	110.7197265625	266.7981567382813	-1391.300048828125	159.6240844726562	266.403289794922	-1402.611328125	142.6723480224609	81.21218872070321	-1381.638061523438	183.4872283935547	89.66711425781259	-1295.81396484375	94.89114379882812	67.23421478271493	-1318.390747070312	309.8516845703125	47.76517105102548	-1348.63720703125	253.0832824707031	31.13931655883798	-1443.577758789062	156.6340789794922	696.2874755859376	-1026.261596679688	207.513427734375	638.0963745117189	-1006.159729003906	164.3588714599609	635.0592651367189	-1031.155883789062	199.2882080078125	496.5140075683594	-1027.063110351562	237.6784210205078	464.3069763183594	-1148.407958984375	152.7448272705078	432.5553588867188	-1029.744873046875	118.6849899291992	346.8362731933594	-1019.717468261719	148.3527221679688	275.5236511230469	-1004.259887695312	107.1036987304688	286.2048034667969	-1029.966064453125	124.820686340332	84.99185943603521	-1041.774780273438	188.8551025390625	95.58630371093757	-1114.680908203125	90.53211975097656	63.34277725219734	-1115.02978515625	292.6636352539062	47.66411972045905	-1043.781127929688	216.4501190185547	39.47259902954107	-964.2838134765625	315.8907470703125	1366.624267578125	-1204.045288085938	347.5845947265625	1220.98486328125	-1205.393188476562	194.2475280761719	1435.036987304688	-1355.258422851562	161.5358734130859	1409.692626953125	-1494.169311523438	150.6543121337891	1384.120483398438	-1554.458251953125	194.1208801269531	1412.311889648438	-1551.44189453125	175.7875213623047	1399.764038085938	-1658.770263671875	249.0911407470703	1309.674438476562	-1656.520629882812	174.5519256591797	1374.059936523438	-1749.253295898438	167.8702392578125	1314.5947265625	-1801.97802734375	179.7786712646484	1363.018920898438	-1810.178466796875	193.3222808837891	1353.7314453125	-1914.393920898438	272.3738403320312	1350.65185546875	-1906.606567382812	193.8797912597656	1430.265258789062	-1064.395263671875	150.9140167236328	1412.54443359375	-941.8050537109374	168.6283874511719	1409.91552734375	-878.1697998046874	122.0104598999023	1389.989990234375	-888.0870971679686	144.6237945556641	1392.478271484375	-773.3777465820311	200.9019470214844	1297.0185546875	-773.6834716796874	133.29736328125	1372.666015625	-674.3967895507811	149.7044677734375	1414.703125	-608.5848999023436	132.7696075439453	1367.177124023438	-612.0917968749999	145.1385192871094	1378.620849609375	-519.9585571289061	222.9363098144531	1354.008544921875	-507.6910400390624	93.72559356689453	1266.275024414062	-1218.811767578125	
49	0.24	960.7560424804688	36.21053314208996	-1933.51220703125	1063.159301757812	32.9323501586914	86.64491271972656	357.0936584472656	1604.4248046875	-1191.494506835938	306.4872741699219	1630.793090820312	-1128.995483398438	316.4926147460938	1630.549926757812	-1264.886596679688	133.2310333251953	1438.569580078125	-1209.22216796875	nan	nan	nan	91.79396820068359	1229.395874023438	-1240.8076171875	85.94509124755859	1220.314086914062	-1191.387084960938	99.22470092773438	1164.981323242188	-1225.91015625	115.7851943969727	1101.567138671875	-1222.67578125	88.07698059082031	1080.4296875	-1237.247192382812	87.44294738769531	1077.092895507812	-1187.023315429688	81.17322540283203	1017.504089355469	-1216.969604492188	97.46303558349609	957.9455566406251	-1241.3154296875	97.99497985839844	955.9683227539064	-1189.898559570312	79.71242523193359	898.5177612304689	-1217.347778320312	328.5474853515625	935.9487915039064	-1332.522338867188	319.5609130859375	927.2979125976564	-1085.2197265625	109.7915344238281	975.3524169921876	-1260.273193359375	110.3689117431641	966.5684814453126	-1175.648559570312	190.1553649902344	682.8339843750001	-1401.913940429688	140.8858947753906	629.2423095703126	-1369.498657226562	187.198974609375	623.0336914062501	-1388.224731445312	236.4530487060547	487.4779357910157	-1384.384887695312	254.8593444824219	462.6365051269532	-1264.435302734375	193.9454650878906	425.3449401855469	-1389.30712890625	159.9346008300781	328.2675781250001	-1404.546630859375	110.7138595581055	266.8119201660157	-1391.290283203125	159.6317138671875	266.3993530273439	-1402.601806640625	142.6769104003906	81.20873260498055	-1381.647338867188	183.4932556152344	89.66246795654305	-1295.81787109375	94.89629364013672	67.24381256103524	-1318.3935546875	309.85302734375	47.75891113281259	-1348.6279296875	253.0865173339844	31.13940620422372	-1443.576782226562	156.6648101806641	696.2617797851564	-1026.250610351562	207.5405120849609	638.0982666015626	-1006.152038574219	164.4014434814453	635.0531005859376	-1031.141479492188	199.3112182617188	496.5117797851563	-1027.049926757812	237.6758117675781	464.3086547851563	-1148.401489257812	152.7631072998047	432.5567932128907	-1029.740478515625	118.6292190551758	346.6903686523438	-1019.809997558594	148.3629760742188	275.5225524902344	-1004.258117675781	107.1160659790039	286.1997985839844	-1029.972534179688	124.8181686401367	84.99949645996099	-1041.762451171875	188.8742828369141	95.5092849731446	-1114.649780273438	90.51728820800781	63.36445236206062	-1115.0185546875	292.66748046875	47.65607070922858	-1043.789794921875	216.4642639160156	39.51609039306646	-964.240478515625	315.9639587402344	1366.630493164062	-1204.007202148438	347.6431884765625	1220.985473632812	-1205.3720703125	194.3017120361328	1435.057739257812	-1355.21923828125	161.5718231201172	1409.720703125	-1494.147705078125	150.7292633056641	1384.1630859375	-1554.398681640625	194.1681976318359	1412.340942382812	-1551.396606445312	175.8579864501953	1399.803344726562	-1658.71875	249.141357421875	1309.678833007812	-1656.47998046875	174.5569000244141	1374.135620117188	-1749.209350585938	167.9158935546875	1314.6552734375	-1801.942260742188	179.8077697753906	1363.08837890625	-1810.138305664062	193.3678894042969	1353.803955078125	-1914.35205078125	272.3984985351562	1350.7177734375	-1906.565307617188	193.7086334228516	1430.2470703125	-1064.2783203125	150.9735107421875	1412.515869140625	-941.7769775390624	168.6397094726562	1409.890014648438	-878.1459350585936	122.0310516357422	1389.842651367188	-887.9437866210936	144.6777801513672	1392.42724609375	-773.3395996093749	200.9691009521484	1296.960083007812	-773.6708374023436	133.3549346923828	1372.631225585938	-674.3566284179686	149.7603759765625	1414.674438476562	-608.5571899414061	132.8135375976562	1367.132202148438	-612.0647583007811	145.1849975585938	1378.5830078125	-519.9412841796874	222.9684295654297	1353.979614257812	-507.6602783203124	93.77365112304688	1266.281982421875	-1218.775390625	
50	0.245	960.74951171875	36.19803237915051	-1933.520141601562	1063.153686523438	32.92642593383788	86.64308166503906	357.2048950195312	1604.372924804688	-1191.424194335938	306.5838623046875	1630.753295898438	-1128.926391601562	316.6189270019531	1630.528686523438	-1264.831909179688	133.2912750244141	1438.568969726562	-1209.18408203125	nan	nan	nan	91.85565185546875	1229.405151367188	-1240.7705078125	86.04876708984375	1220.30224609375	-1191.339111328125	99.25293731689453	1164.983642578125	-1225.889526367188	115.8188629150391	1101.575317382812	-1222.651489257812	87.98390197753906	1080.423461914062	-1237.26318359375	87.47925567626953	1077.100708007812	-1186.995727539062	81.21690368652344	1017.532287597656	-1216.952270507812	97.47618103027344	957.9555664062501	-1241.290283203125	98.03591156005859	955.9645385742189	-1189.882202148438	79.75547790527344	898.5100097656251	-1217.330078125	328.577880859375	935.9560546875001	-1332.51220703125	319.8789672851562	927.4768676757814	-1084.884033203125	110.0813064575195	975.3157348632814	-1260.203857421875	110.3998718261719	966.5676879882814	-1175.630615234375	190.0472259521484	682.7902221679689	-1402.149047851562	140.9243469238281	629.2362060546876	-1369.470947265625	187.2109985351562	623.0354614257814	-1388.216674804688	236.44775390625	487.4861450195313	-1384.382568359375	254.8191528320312	462.6025390625001	-1264.482543945312	193.9595489501953	425.3503112792969	-1389.314575195312	159.9378662109375	328.2892150878907	-1404.54541015625	110.7129211425781	266.8286437988282	-1391.303344726562	159.6444091796875	266.4104003906251	-1402.602783203125	142.6615600585938	81.23094177246102	-1381.629150390625	183.5017547607422	89.67221069335946	-1295.803955078125	94.89954376220703	67.24174499511727	-1318.394409179688	309.8460693359375	47.75991439819344	-1348.6318359375	253.0472412109375	31.21591758728036	-1443.615600585938	156.6920776367188	696.2546997070314	-1026.219360351562	207.5625305175781	638.0819702148439	-1006.149047851562	164.4290008544922	635.0503540039064	-1031.13134765625	199.3300628662109	496.5150756835938	-1027.04248046875	237.7061462402344	464.2869262695313	-1148.395263671875	152.7773132324219	432.5563964843751	-1029.754760742188	118.6481094360352	346.6995239257813	-1019.808044433594	148.3769073486328	275.5169677734376	-1004.256286621094	107.1261520385742	286.2074890136719	-1029.953857421875	124.8250885009766	84.99353027343756	-1041.769165039062	188.8496856689453	95.57467651367195	-1114.684204101562	90.66934204101562	63.19207382202156	-1115.0205078125	292.661865234375	47.64358520507819	-1043.787353515625	216.4533996582031	39.49757003784185	-964.2627563476562	316.0093078613281	1366.642211914062	-1203.975341796875	347.6922912597656	1220.97216796875	-1205.344482421875	194.377197265625	1435.07470703125	-1355.15625	161.6526947021484	1409.754272460938	-1494.087890625	150.7704315185547	1384.149536132812	-1554.358032226562	194.2254943847656	1412.366943359375	-1551.360595703125	175.8914489746094	1399.858764648438	-1658.679565429688	249.1783905029297	1309.726684570312	-1656.452270507812	174.5382995605469	1374.174072265625	-1749.196655273438	167.9668884277344	1314.7255859375	-1801.890991210938	179.8404693603516	1363.149047851562	-1810.0927734375	193.3593444824219	1353.866088867188	-1914.310424804688	272.4194641113281	1350.773681640625	-1906.525024414062	194.0111846923828	1430.243041992188	-1064.327880859375	151.0202331542969	1412.51123046875	-941.7487792968749	168.6855621337891	1409.845336914062	-878.0867919921874	122.0629119873047	1389.808227539062	-887.9244995117186	144.728271484375	1392.392822265625	-773.3104858398436	201.0140075683594	1296.9345703125	-773.6424560546874	133.4058837890625	1372.590576171875	-674.3266601562499	149.8159332275391	1414.6376953125	-608.5128173828124	132.8590087890625	1367.104736328125	-612.0261230468749	145.2191925048828	1378.525268554688	-519.9017333984374	223.0029296875	1353.9716796875	-507.6374206542968	93.77003479003906	1266.323120117188	-1218.749267578125	
